Coordinates
version=1
nRows=6
nColumns=63
inDegrees=yes

Units are S.I. units (second, meters, Newtons, ...)
If the header above contains a line with 'inDegrees', this indicates whether rotational values are in degrees (yes) or radians (no).

endheader
time	pelvis_tilt	pelvis_list	pelvis_rotation	pelvis_tx	pelvis_ty	pelvis_tz	hip_flexion_r	hip_adduction_r	hip_rotation_r	knee_angle_r	knee_angle_r_beta	ankle_angle_r	subtalar_angle_r	mtp_angle_r	hip_flexion_l	hip_adduction_l	hip_rotation_l	knee_angle_l	knee_angle_l_beta	ankle_angle_l	subtalar_angle_l	mtp_angle_l	L5_S1_Flex_Ext	L5_S1_Lat_Bending	L5_S1_axial_rotation	L4_L5_Flex_Ext	L4_L5_Lat_Bending	L4_L5_axial_rotation	L3_L4_Flex_Ext	L3_L4_Lat_Bending	L3_L4_axial_rotation	L2_L3_Flex_Ext	L2_L3_Lat_Bending	L2_L3_axial_rotation	L1_L2_Flex_Ext	L1_L2_Lat_Bending	L1_L2_axial_rotation	L1_T12_Flex_Ext	L1_T12_Lat_Bending	L1_T12_axial_rotation	Abs_r3	Abs_r2	Abs_r1	Abs_t1	Abs_t2	neck_flexion	neck_bending	neck_rotation	arm_flex_r	arm_add_r	arm_rot_r	elbow_flex_r	pro_sup_r	wrist_flex_r	wrist_dev_r	arm_flex_l	arm_add_l	arm_rot_l	elbow_flex_l	pro_sup_l	wrist_flex_l	wrist_dev_l
10.850000	-0.738604	-4.494468	90.102836	0.190519	0.992397	0.482187	4.397248	-0.573418	-5.369479	6.440488	0.112408	29.248520	15.488585	0.000000	2.709984	-0.394000	1.740195	1.143042	0.019950	26.715449	-6.168023	0.000000	0.187875	0.074833	-0.039385	0.348902	0.099528	-0.041847	0.308659	0.181948	-0.041847	0.214722	0.181948	-0.034462	0.174460	0.152599	-0.032001	0.107352	0.115916	-0.029539	1.341970	0.846523	-0.219050	0.000000	0.000000	26.143067	-2.140043	-1.463002	11.487506	-5.806290	46.993528	47.322104	36.703052	2.254530	4.609348	14.647480	-4.476214	58.033947	40.965698	62.144234	0.022903	-12.686101
10.866667	-0.761222	-4.539747	90.094868	0.190471	0.992449	0.481981	4.400616	-0.610594	-5.334916	6.396543	0.111641	29.257408	15.537691	0.000000	2.734398	-0.357746	1.863869	1.127906	0.019686	26.802738	-6.068064	0.000000	0.195823	0.068019	-0.062957	0.363663	0.090465	-0.066891	0.321718	0.165380	-0.066891	0.223806	0.165380	-0.055087	0.181841	0.138704	-0.051152	0.111893	0.105361	-0.047217	1.398746	0.769440	-0.350146	0.000000	0.000000	26.287995	-2.285121	-1.985663	11.611085	-5.823545	47.207956	47.290759	37.932290	2.505779	4.510844	14.449878	-4.548049	57.635791	41.009726	62.807381	-0.031772	-13.043712
10.883333	-0.781410	-4.591345	90.103340	0.190397	0.992499	0.481769	4.405319	-0.645499	-5.277051	6.363624	0.111066	29.232854	15.540626	0.000000	2.756294	-0.320997	2.274342	1.098793	0.019178	26.773135	-6.380523	0.000000	0.205458	0.060941	-0.092202	0.381556	0.081052	-0.097964	0.337547	0.148173	-0.097964	0.234818	0.148173	-0.080676	0.190788	0.124271	-0.074914	0.117399	0.094398	-0.069151	1.467566	0.689380	-0.512797	0.000000	0.000000	26.393928	-2.474683	-2.587401	11.752345	-5.845392	47.482667	47.236404	39.261671	2.802677	4.349133	14.247691	-4.622028	57.296476	41.016210	63.356235	-0.018155	-13.424089
10.900000	-0.807537	-4.632382	90.107365	0.190359	0.992570	0.481550	4.389294	-0.680747	-5.169933	6.322074	0.110341	29.170589	15.497158	0.000000	2.765823	-0.285083	2.520307	1.079776	0.018846	26.755571	-6.510028	0.000000	0.213746	0.052890	-0.125806	0.396947	0.070344	-0.133669	0.351163	0.128598	-0.133669	0.244290	0.128598	-0.110080	0.198484	0.107854	-0.102217	0.122134	0.081927	-0.094355	1.526764	0.598306	-0.699695	0.000000	0.000000	26.485223	-2.644408	-3.166081	11.921132	-5.869368	47.888205	47.196572	40.256311	2.995338	4.216828	14.030855	-4.727415	57.015316	41.074352	63.544234	-0.020110	-13.658275
10.916667	-0.829421	-4.681734	90.101898	0.190340	0.992641	0.481342	4.384301	-0.706449	-5.021765	6.284150	0.109679	29.083715	15.416353	0.000000	2.781767	-0.256643	2.708961	1.065170	0.018591	26.714882	-6.625229	0.000000	0.223312	0.045493	-0.158534	0.414712	0.060506	-0.168443	0.366879	0.110612	-0.168443	0.255223	0.110612	-0.138718	0.207367	0.092770	-0.128809	0.127600	0.070469	-0.118901	1.595094	0.514629	-0.881721	0.000000	0.000000	26.572024	-2.821051	-3.741860	12.081211	-5.891863	48.271816	47.130703	41.427118	3.252396	4.055744	13.823693	-4.822462	56.824265	41.082225	63.594990	-0.004515	-13.930652
10.933333	-0.851890	-4.723969	90.102716	0.190333	0.992730	0.481137	4.370056	-0.728773	-4.882250	6.238347	0.108880	28.984352	15.345241	0.000000	2.790850	-0.230932	2.785358	1.058352	0.018472	26.667900	-6.631970	0.000000	0.231552	0.037868	-0.192926	0.430014	0.050365	-0.204984	0.380416	0.092073	-0.204984	0.264640	0.092073	-0.168811	0.215019	0.077221	-0.156753	0.132309	0.058658	-0.144695	1.653949	0.428375	-1.072998	0.000000	0.000000	26.658606	-2.979292	-4.306833	12.223091	-5.910000	48.639833	47.078190	42.430249	3.480642	3.948858	13.626477	-4.922622	56.721559	41.091991	63.409367	-0.019707	-14.148658
